<svg width="171" height="24" viewBox="0 0 171 24" fill="none" xmlns="http://www.w3.org/2000/svg">
<path d="M13.368 23.416C11.448 23.416 9.70933 23.192 8.152 22.744C6.616 22.296 5.28267 21.624 4.152 20.728C3.04267 19.832 2.18933 18.7227 1.592 17.4C0.994667 16.0773 0.696 14.552 0.696 12.824C0.696 11.0747 1.00533 9.528 1.624 8.184C2.264 6.81867 3.16 5.66667 4.312 4.728C5.48533 3.78933 6.872 3.08533 8.472 2.616C10.0933 2.12533 11.8853 1.88 13.848 1.88C16.1733 1.88 18.1787 2.21067 19.864 2.872C21.5493 3.512 22.872 4.41867 23.832 5.592C24.8133 6.76533 25.368 8.16267 25.496 9.784H21.4C21.1227 8.93067 20.664 8.19467 20.024 7.576C19.4053 6.936 18.584 6.44533 17.56 6.104C16.536 5.74133 15.2987 5.56 13.848 5.56C11.992 5.56 10.4027 5.85867 9.08 6.456C7.77867 7.05333 6.78667 7.896 6.104 8.984C5.42133 10.072 5.08 11.352 5.08 12.824C5.08 14.2533 5.37867 15.4907 5.976 16.536C6.57333 17.56 7.49067 18.3493 8.728 18.904C9.98667 19.4587 11.5867 19.736 13.528 19.736C15.0213 19.736 16.3333 19.544 17.464 19.16C18.616 18.7547 19.576 18.2213 20.344 17.56C21.112 16.8773 21.656 16.12 21.976 15.288L23.64 14.68C23.3627 17.432 22.3173 19.576 20.504 21.112C18.712 22.648 16.3333 23.416 13.368 23.416ZM22.552 23C22.552 22.3387 22.5947 21.5813 22.68 20.728C22.7653 19.8533 22.872 18.9787 23 18.104C23.128 17.208 23.2453 16.3867 23.352 15.64H13.88V12.92H26.232V23H22.552ZM30.17 7.096H34.33V23H30.17V7.096ZM40.442 10.52C39.2473 10.52 38.2127 10.7547 37.338 11.224C36.4633 11.672 35.7593 12.2267 35.226 12.888C34.6927 13.5493 34.3193 14.1893 34.106 14.808L34.074 13.048C34.0953 12.792 34.1807 12.4187 34.33 11.928C34.4793 11.416 34.7033 10.872 35.002 10.296C35.3007 9.69867 35.6953 9.13333 36.186 8.6C36.6767 8.04533 37.274 7.59733 37.978 7.256C38.682 6.91467 39.5033 6.744 40.442 6.744V10.52ZM52.3898 23.384C50.3844 23.384 48.6138 23.064 47.0778 22.424C45.5631 21.784 44.3791 20.856 43.5258 19.64C42.6724 18.4027 42.2458 16.888 42.2458 15.096C42.2458 13.304 42.6724 11.7893 43.5258 10.552C44.3791 9.29333 45.5631 8.344 47.0778 7.704C48.6138 7.064 50.3844 6.744 52.3898 6.744C54.3951 6.744 56.1444 7.064 57.6378 7.704C59.1524 8.344 60.3364 9.29333 61.1898 10.552C62.0431 11.7893 62.4698 13.304 62.4698 15.096C62.4698 16.888 62.0431 18.4027 61.1898 19.64C60.3364 20.856 59.1524 21.784 57.6378 22.424C56.1444 23.064 54.3951 23.384 52.3898 23.384ZM52.3898 20.184C53.4991 20.184 54.4911 19.992 55.3658 19.608C56.2618 19.2027 56.9658 18.6267 57.4778 17.88C57.9898 17.112 58.2458 16.184 58.2458 15.096C58.2458 14.008 57.9898 13.08 57.4778 12.312C56.9658 11.5227 56.2724 10.9253 55.3978 10.52C54.5231 10.1147 53.5204 9.912 52.3898 9.912C51.2804 9.912 50.2778 10.1147 49.3818 10.52C48.4858 10.9253 47.7711 11.512 47.2378 12.28C46.7258 13.048 46.4698 13.9867 46.4698 15.096C46.4698 16.184 46.7258 17.112 47.2378 17.88C47.7498 18.6267 48.4538 19.2027 49.3498 19.608C50.2458 19.992 51.2591 20.184 52.3898 20.184ZM85.656 20.12L84.344 20.088L89.528 7.096H94.104L87.096 23H83.192L78.072 10.168H79.48L74.2 23H70.296L63.48 7.096H68.056L73.048 20.12H71.736L76.408 7.096H81.176L85.656 20.12Z" fill="#FF7A3C"/>
<path d="M104.001 23L95.265 2.296H99.969L107.361 20.632L105.985 20.664L113.025 2.296H117.921L124.961 20.664L123.585 20.632L130.977 2.296H135.585L126.945 23H121.729L114.817 5.048H116.161L109.217 23H104.001ZM150.541 17.72H154.573C154.402 18.808 153.944 19.7787 153.197 20.632C152.472 21.4853 151.48 22.1573 150.221 22.648C148.962 23.1387 147.426 23.384 145.613 23.384C143.586 23.384 141.794 23.064 140.237 22.424C138.68 21.7627 137.464 20.8133 136.589 19.576C135.714 18.3387 135.277 16.8453 135.277 15.096C135.277 13.3467 135.704 11.8533 136.557 10.616C137.41 9.35733 138.594 8.39733 140.109 7.736C141.645 7.07467 143.437 6.744 145.485 6.744C147.576 6.744 149.314 7.07467 150.701 7.736C152.088 8.39733 153.112 9.4 153.773 10.744C154.456 12.0667 154.744 13.7627 154.637 15.832H139.469C139.576 16.6427 139.874 17.3787 140.365 18.04C140.877 18.7013 141.56 19.224 142.413 19.608C143.288 19.992 144.322 20.184 145.517 20.184C146.84 20.184 147.938 19.96 148.813 19.512C149.709 19.0427 150.285 18.4453 150.541 17.72ZM145.293 9.912C143.757 9.912 142.509 10.2533 141.549 10.936C140.589 11.5973 139.97 12.4187 139.693 13.4H150.509C150.402 12.3333 149.89 11.4907 148.973 10.872C148.077 10.232 146.85 9.912 145.293 9.912ZM158.053 0.695999H162.213V23H158.053V0.695999ZM166.74 0.695999H170.9V23H166.74V0.695999Z" fill="#151516"/>
</svg>
